<mxfile host="app.diagrams.net" agent="Mozilla/5.0 (X11; Linux x86_64) AppleWebKit/537.36 (KHTML, like Gecko) Chrome/128.0.0.0 Safari/537.36" version="27.1.1">
  <diagram id="Ht1M8jgEwFfnCIfOTk4-" name="Page-1">
    <mxGraphModel dx="4360" dy="2574" grid="1" gridSize="10" guides="1" tooltips="1" connect="1" arrows="1" fold="1" page="1" pageScale="1" pageWidth="1169" pageHeight="827" math="0" shadow="0">
      <root>
        <mxCell id="0" />
        <mxCell id="1" parent="0" />
        <mxCell id="1iKM_LpDAypyYOfKzIO1-23" value="" style="rounded=0;whiteSpace=wrap;html=1;" vertex="1" parent="1">
          <mxGeometry x="-430" y="-850" width="1670" height="820" as="geometry" />
        </mxCell>
        <mxCell id="UEzPUAAOIrF-is8g5C7q-167" style="edgeStyle=orthogonalEdgeStyle;rounded=0;orthogonalLoop=1;jettySize=auto;html=1;startArrow=none;startFill=0;endArrow=open;endFill=0;strokeColor=#808080;strokeWidth=2;" parent="1" source="UEzPUAAOIrF-is8g5C7q-148" target="Ka90r95FRa_wLkeRy9uG-1" edge="1">
          <mxGeometry relative="1" as="geometry">
            <mxPoint x="796" y="-525" as="targetPoint" />
            <Array as="points">
              <mxPoint x="469" y="-525" />
            </Array>
          </mxGeometry>
        </mxCell>
        <mxCell id="UEzPUAAOIrF-is8g5C7q-144" value="Amazon CloudWatch" style="outlineConnect=0;fontColor=#232F3E;gradientColor=#F34482;gradientDirection=north;fillColor=#BC1356;strokeColor=#ffffff;dashed=0;verticalLabelPosition=bottom;verticalAlign=top;align=center;html=1;fontSize=12;fontStyle=0;aspect=fixed;shape=mxgraph.aws4.resourceIcon;resIcon=mxgraph.aws4.cloudwatch;labelBackgroundColor=#ffffff;spacingTop=5;" parent="1" vertex="1">
          <mxGeometry x="940" y="-251" width="100" height="100" as="geometry" />
        </mxCell>
        <mxCell id="UEzPUAAOIrF-is8g5C7q-148" value="Calculate&lt;div&gt;&lt;br&gt;&lt;/div&gt;" style="outlineConnect=0;fontColor=#232F3E;gradientColor=#F78E04;gradientDirection=north;fillColor=#D05C17;strokeColor=#ffffff;dashed=0;verticalLabelPosition=bottom;verticalAlign=top;align=center;html=1;fontSize=12;fontStyle=0;aspect=fixed;shape=mxgraph.aws4.resourceIcon;resIcon=mxgraph.aws4.lambda;labelBackgroundColor=#ffffff;spacingTop=8;" parent="1" vertex="1">
          <mxGeometry x="304" y="-560" width="60" height="60" as="geometry" />
        </mxCell>
        <mxCell id="UEzPUAAOIrF-is8g5C7q-158" value="&lt;font style=&quot;font-size: 17px;&quot;&gt;Functions Uploaded to S3&lt;/font&gt;" style="outlineConnect=0;fontColor=#232F3E;gradientColor=none;fillColor=#277116;strokeColor=none;dashed=0;verticalLabelPosition=bottom;verticalAlign=top;align=center;html=1;fontSize=12;fontStyle=0;aspect=fixed;pointerEvents=1;shape=mxgraph.aws4.bucket_with_objects;labelBackgroundColor=#ffffff;" parent="1" vertex="1">
          <mxGeometry x="-1000" y="-350" width="169.62" height="176.4" as="geometry" />
        </mxCell>
        <mxCell id="WvLUMB6CFgXxN4avAicS-3" value="" style="edgeStyle=orthogonalEdgeStyle;rounded=0;orthogonalLoop=1;jettySize=auto;html=1;" parent="1" source="WVzUcpBFHxPZDTuw3k7G-3" target="WvLUMB6CFgXxN4avAicS-2" edge="1">
          <mxGeometry relative="1" as="geometry" />
        </mxCell>
        <mxCell id="WVzUcpBFHxPZDTuw3k7G-3" value="Process&lt;div&gt;&lt;br&gt;&lt;/div&gt;" style="outlineConnect=0;fontColor=#232F3E;gradientColor=#F78E04;gradientDirection=north;fillColor=#D05C17;strokeColor=#ffffff;dashed=0;verticalLabelPosition=bottom;verticalAlign=top;align=center;html=1;fontSize=12;fontStyle=0;aspect=fixed;shape=mxgraph.aws4.resourceIcon;resIcon=mxgraph.aws4.lambda;labelBackgroundColor=#ffffff;spacingTop=8;" parent="1" vertex="1">
          <mxGeometry x="590" y="-560" width="60" height="60" as="geometry" />
        </mxCell>
        <mxCell id="Ka90r95FRa_wLkeRy9uG-2" value="" style="edgeStyle=orthogonalEdgeStyle;rounded=0;orthogonalLoop=1;jettySize=auto;html=1;" parent="1" source="Ka90r95FRa_wLkeRy9uG-1" target="WVzUcpBFHxPZDTuw3k7G-3" edge="1">
          <mxGeometry relative="1" as="geometry" />
        </mxCell>
        <mxCell id="WvLUMB6CFgXxN4avAicS-15" style="edgeStyle=orthogonalEdgeStyle;rounded=0;orthogonalLoop=1;jettySize=auto;html=1;" parent="1" source="Ka90r95FRa_wLkeRy9uG-1" target="WvLUMB6CFgXxN4avAicS-6" edge="1">
          <mxGeometry relative="1" as="geometry" />
        </mxCell>
        <mxCell id="Ka90r95FRa_wLkeRy9uG-1" value="S&lt;span style=&quot;background-color: transparent; color: light-dark(rgb(35, 47, 62), rgb(189, 199, 212));&quot;&gt;QS Queue&lt;/span&gt;" style="sketch=0;outlineConnect=0;fontColor=#232F3E;gradientColor=none;fillColor=#E7157B;strokeColor=none;dashed=0;verticalLabelPosition=bottom;verticalAlign=top;align=center;html=1;fontSize=12;fontStyle=0;aspect=fixed;pointerEvents=1;shape=mxgraph.aws4.queue;" parent="1" vertex="1">
          <mxGeometry x="450" y="-550" width="66.39" height="40" as="geometry" />
        </mxCell>
        <mxCell id="WvLUMB6CFgXxN4avAicS-2" value="Amazon DynamoDB" style="outlineConnect=0;fontColor=#232F3E;gradientColor=#4D72F3;gradientDirection=north;fillColor=#3334B9;strokeColor=#ffffff;dashed=0;verticalLabelPosition=bottom;verticalAlign=top;align=center;html=1;fontSize=12;fontStyle=0;aspect=fixed;shape=mxgraph.aws4.resourceIcon;resIcon=mxgraph.aws4.dynamodb;labelBackgroundColor=#ffffff;" parent="1" vertex="1">
          <mxGeometry x="740" y="-560" width="60" height="60" as="geometry" />
        </mxCell>
        <mxCell id="WvLUMB6CFgXxN4avAicS-5" value="SNS Topic&lt;div&gt;&lt;br&gt;&lt;/div&gt;" style="sketch=0;outlineConnect=0;fontColor=#232F3E;gradientColor=none;fillColor=#E7157B;strokeColor=none;dashed=0;verticalLabelPosition=bottom;verticalAlign=top;align=center;html=1;fontSize=12;fontStyle=0;aspect=fixed;pointerEvents=1;shape=mxgraph.aws4.email_notification;" parent="1" vertex="1">
          <mxGeometry x="900" y="-775.5" width="60" height="60" as="geometry" />
        </mxCell>
        <mxCell id="WvLUMB6CFgXxN4avAicS-6" value="&lt;span style=&quot;background-color: transparent; color: light-dark(rgb(35, 47, 62), rgb(189, 199, 212));&quot;&gt;DLQ&amp;nbsp;&lt;/span&gt;&lt;span style=&quot;background-color: transparent; color: light-dark(rgb(35, 47, 62), rgb(189, 199, 212));&quot;&gt;Queue&lt;/span&gt;" style="sketch=0;outlineConnect=0;fontColor=#232F3E;gradientColor=none;fillColor=#E7157B;strokeColor=none;dashed=0;verticalLabelPosition=bottom;verticalAlign=top;align=center;html=1;fontSize=12;fontStyle=0;aspect=fixed;pointerEvents=1;shape=mxgraph.aws4.queue;" parent="1" vertex="1">
          <mxGeometry x="450" y="-655.5" width="66.39" height="40" as="geometry" />
        </mxCell>
        <mxCell id="WvLUMB6CFgXxN4avAicS-14" style="edgeStyle=orthogonalEdgeStyle;rounded=0;orthogonalLoop=1;jettySize=auto;html=1;" parent="1" source="WvLUMB6CFgXxN4avAicS-12" target="UEzPUAAOIrF-is8g5C7q-148" edge="1">
          <mxGeometry relative="1" as="geometry" />
        </mxCell>
        <mxCell id="WvLUMB6CFgXxN4avAicS-12" value="REST API&lt;div&gt;&lt;br&gt;&lt;/div&gt;" style="sketch=0;points=[[0,0,0],[0.25,0,0],[0.5,0,0],[0.75,0,0],[1,0,0],[0,1,0],[0.25,1,0],[0.5,1,0],[0.75,1,0],[1,1,0],[0,0.25,0],[0,0.5,0],[0,0.75,0],[1,0.25,0],[1,0.5,0],[1,0.75,0]];outlineConnect=0;fontColor=#232F3E;fillColor=#E7157B;strokeColor=#ffffff;dashed=0;verticalLabelPosition=bottom;verticalAlign=top;align=center;html=1;fontSize=12;fontStyle=0;aspect=fixed;shape=mxgraph.aws4.resourceIcon;resIcon=mxgraph.aws4.api_gateway;" parent="1" vertex="1">
          <mxGeometry x="100" y="-560" width="60" height="60" as="geometry" />
        </mxCell>
        <mxCell id="WvLUMB6CFgXxN4avAicS-19" style="edgeStyle=orthogonalEdgeStyle;rounded=0;orthogonalLoop=1;jettySize=auto;html=1;entryX=0;entryY=0.5;entryDx=0;entryDy=0;entryPerimeter=0;" parent="1" source="1iKM_LpDAypyYOfKzIO1-12" target="WvLUMB6CFgXxN4avAicS-12" edge="1">
          <mxGeometry relative="1" as="geometry" />
        </mxCell>
        <mxCell id="WvLUMB6CFgXxN4avAicS-20" value="Get&lt;div&gt;&lt;br&gt;&lt;/div&gt;" style="outlineConnect=0;fontColor=#232F3E;gradientColor=#F78E04;gradientDirection=north;fillColor=#D05C17;strokeColor=#ffffff;dashed=0;verticalLabelPosition=bottom;verticalAlign=top;align=center;html=1;fontSize=12;fontStyle=0;aspect=fixed;shape=mxgraph.aws4.resourceIcon;resIcon=mxgraph.aws4.lambda;labelBackgroundColor=#ffffff;spacingTop=8;" parent="1" vertex="1">
          <mxGeometry x="310" y="-380" width="60" height="60" as="geometry" />
        </mxCell>
        <mxCell id="WvLUMB6CFgXxN4avAicS-21" value="Update" style="outlineConnect=0;fontColor=#232F3E;gradientColor=#F78E04;gradientDirection=north;fillColor=#D05C17;strokeColor=#ffffff;dashed=0;verticalLabelPosition=bottom;verticalAlign=top;align=center;html=1;fontSize=12;fontStyle=0;aspect=fixed;shape=mxgraph.aws4.resourceIcon;resIcon=mxgraph.aws4.lambda;labelBackgroundColor=#ffffff;spacingTop=8;" parent="1" vertex="1">
          <mxGeometry x="310" y="-270" width="60" height="60" as="geometry" />
        </mxCell>
        <mxCell id="WvLUMB6CFgXxN4avAicS-23" value="" style="endArrow=none;html=1;rounded=0;" parent="1" edge="1">
          <mxGeometry width="50" height="50" relative="1" as="geometry">
            <mxPoint x="240" y="-120" as="sourcePoint" />
            <mxPoint x="240" y="-530" as="targetPoint" />
          </mxGeometry>
        </mxCell>
        <mxCell id="WvLUMB6CFgXxN4avAicS-25" value="" style="edgeStyle=none;orthogonalLoop=1;jettySize=auto;html=1;rounded=0;" parent="1" target="WvLUMB6CFgXxN4avAicS-21" edge="1">
          <mxGeometry width="80" relative="1" as="geometry">
            <mxPoint x="240" y="-240" as="sourcePoint" />
            <mxPoint x="320" y="-710" as="targetPoint" />
            <Array as="points" />
          </mxGeometry>
        </mxCell>
        <mxCell id="WvLUMB6CFgXxN4avAicS-28" value="" style="endArrow=classic;html=1;rounded=0;" parent="1" target="WvLUMB6CFgXxN4avAicS-20" edge="1">
          <mxGeometry width="50" height="50" relative="1" as="geometry">
            <mxPoint x="240" y="-350" as="sourcePoint" />
            <mxPoint x="270" y="-342" as="targetPoint" />
          </mxGeometry>
        </mxCell>
        <mxCell id="1iKM_LpDAypyYOfKzIO1-2" value="" style="edgeStyle=none;orthogonalLoop=1;jettySize=auto;html=1;rounded=0;" edge="1" target="1iKM_LpDAypyYOfKzIO1-3" parent="1">
          <mxGeometry width="80" relative="1" as="geometry">
            <mxPoint x="240" y="-120" as="sourcePoint" />
            <mxPoint x="304" y="-87" as="targetPoint" />
            <Array as="points" />
          </mxGeometry>
        </mxCell>
        <mxCell id="1iKM_LpDAypyYOfKzIO1-3" value="Update" style="outlineConnect=0;fontColor=#232F3E;gradientColor=#F78E04;gradientDirection=north;fillColor=#D05C17;strokeColor=#ffffff;dashed=0;verticalLabelPosition=bottom;verticalAlign=top;align=center;html=1;fontSize=12;fontStyle=0;aspect=fixed;shape=mxgraph.aws4.resourceIcon;resIcon=mxgraph.aws4.lambda;labelBackgroundColor=#ffffff;spacingTop=8;" vertex="1" parent="1">
          <mxGeometry x="310" y="-151" width="60" height="60" as="geometry" />
        </mxCell>
        <mxCell id="1iKM_LpDAypyYOfKzIO1-5" value="" style="endArrow=classic;startArrow=classic;html=1;rounded=0;" edge="1" parent="1" source="WvLUMB6CFgXxN4avAicS-20" target="WvLUMB6CFgXxN4avAicS-2">
          <mxGeometry width="50" height="50" relative="1" as="geometry">
            <mxPoint x="700" y="-310" as="sourcePoint" />
            <mxPoint x="750" y="-360" as="targetPoint" />
            <Array as="points">
              <mxPoint x="770" y="-350" />
            </Array>
          </mxGeometry>
        </mxCell>
        <mxCell id="1iKM_LpDAypyYOfKzIO1-6" value="" style="endArrow=classic;html=1;rounded=0;" edge="1" parent="1" target="WvLUMB6CFgXxN4avAicS-21">
          <mxGeometry width="50" height="50" relative="1" as="geometry">
            <mxPoint x="770" y="-350" as="sourcePoint" />
            <mxPoint x="700" y="-290" as="targetPoint" />
            <Array as="points">
              <mxPoint x="770" y="-240" />
            </Array>
          </mxGeometry>
        </mxCell>
        <mxCell id="1iKM_LpDAypyYOfKzIO1-7" value="" style="endArrow=classic;html=1;rounded=0;" edge="1" parent="1" target="1iKM_LpDAypyYOfKzIO1-3">
          <mxGeometry width="50" height="50" relative="1" as="geometry">
            <mxPoint x="770" y="-240" as="sourcePoint" />
            <mxPoint x="920" y="-260" as="targetPoint" />
            <Array as="points">
              <mxPoint x="770" y="-120" />
            </Array>
          </mxGeometry>
        </mxCell>
        <mxCell id="1iKM_LpDAypyYOfKzIO1-11" value="" style="edgeStyle=orthogonalEdgeStyle;rounded=0;orthogonalLoop=1;jettySize=auto;html=1;entryX=0;entryY=0.5;entryDx=0;entryDy=0;entryPerimeter=0;" edge="1" parent="1" source="1iKM_LpDAypyYOfKzIO1-20" target="1iKM_LpDAypyYOfKzIO1-12">
          <mxGeometry relative="1" as="geometry">
            <mxPoint x="-329.9999999999998" y="-529.9999999999999" as="sourcePoint" />
            <mxPoint x="100" y="-530" as="targetPoint" />
          </mxGeometry>
        </mxCell>
        <mxCell id="1iKM_LpDAypyYOfKzIO1-12" value="Front End" style="sketch=0;outlineConnect=0;gradientColor=none;fontColor=#545B64;strokeColor=none;fillColor=light-dark(#000000, #6a7377);dashed=0;verticalLabelPosition=bottom;verticalAlign=top;align=center;html=1;fontSize=12;fontStyle=0;aspect=fixed;shape=mxgraph.aws4.illustration_devices;pointerEvents=1" vertex="1" parent="1">
          <mxGeometry x="-190" y="-564.31" width="94" height="68.62" as="geometry" />
        </mxCell>
        <mxCell id="1iKM_LpDAypyYOfKzIO1-13" value="" style="endArrow=classic;startArrow=classic;html=1;rounded=0;" edge="1" parent="1" source="WvLUMB6CFgXxN4avAicS-6" target="WvLUMB6CFgXxN4avAicS-5">
          <mxGeometry width="50" height="50" relative="1" as="geometry">
            <mxPoint x="770" y="-430" as="sourcePoint" />
            <mxPoint x="820" y="-480" as="targetPoint" />
            <Array as="points">
              <mxPoint x="483" y="-745" />
            </Array>
          </mxGeometry>
        </mxCell>
        <mxCell id="1iKM_LpDAypyYOfKzIO1-14" value="" style="endArrow=classic;html=1;rounded=0;" edge="1" parent="1" source="UEzPUAAOIrF-is8g5C7q-148" target="UEzPUAAOIrF-is8g5C7q-144">
          <mxGeometry width="50" height="50" relative="1" as="geometry">
            <mxPoint x="880" y="-330" as="sourcePoint" />
            <mxPoint x="930" y="-380" as="targetPoint" />
          </mxGeometry>
        </mxCell>
        <mxCell id="1iKM_LpDAypyYOfKzIO1-15" value="" style="endArrow=classic;html=1;rounded=0;" edge="1" parent="1" source="WvLUMB6CFgXxN4avAicS-20" target="UEzPUAAOIrF-is8g5C7q-144">
          <mxGeometry width="50" height="50" relative="1" as="geometry">
            <mxPoint x="374" y="-494" as="sourcePoint" />
            <mxPoint x="910" y="-24" as="targetPoint" />
          </mxGeometry>
        </mxCell>
        <mxCell id="1iKM_LpDAypyYOfKzIO1-16" value="" style="endArrow=classic;html=1;rounded=0;" edge="1" parent="1" source="WvLUMB6CFgXxN4avAicS-2" target="UEzPUAAOIrF-is8g5C7q-144">
          <mxGeometry width="50" height="50" relative="1" as="geometry">
            <mxPoint x="384" y="-484" as="sourcePoint" />
            <mxPoint x="920" y="-14" as="targetPoint" />
          </mxGeometry>
        </mxCell>
        <mxCell id="1iKM_LpDAypyYOfKzIO1-17" value="" style="endArrow=classic;html=1;rounded=0;" edge="1" parent="1" source="WVzUcpBFHxPZDTuw3k7G-3" target="UEzPUAAOIrF-is8g5C7q-144">
          <mxGeometry width="50" height="50" relative="1" as="geometry">
            <mxPoint x="394" y="-474" as="sourcePoint" />
            <mxPoint x="930" y="-4" as="targetPoint" />
          </mxGeometry>
        </mxCell>
        <mxCell id="1iKM_LpDAypyYOfKzIO1-18" value="" style="endArrow=classic;html=1;rounded=0;" edge="1" parent="1" source="1iKM_LpDAypyYOfKzIO1-3" target="UEzPUAAOIrF-is8g5C7q-144">
          <mxGeometry width="50" height="50" relative="1" as="geometry">
            <mxPoint x="380" y="-323" as="sourcePoint" />
            <mxPoint x="920" y="-14" as="targetPoint" />
          </mxGeometry>
        </mxCell>
        <mxCell id="1iKM_LpDAypyYOfKzIO1-19" value="" style="endArrow=classic;html=1;rounded=0;" edge="1" parent="1" source="WvLUMB6CFgXxN4avAicS-21" target="UEzPUAAOIrF-is8g5C7q-144">
          <mxGeometry width="50" height="50" relative="1" as="geometry">
            <mxPoint x="390" y="-313" as="sourcePoint" />
            <mxPoint x="930" y="-4" as="targetPoint" />
          </mxGeometry>
        </mxCell>
        <mxCell id="1iKM_LpDAypyYOfKzIO1-20" value="users" style="sketch=0;outlineConnect=0;gradientColor=none;fontColor=#545B64;strokeColor=none;fillColor=#000000;dashed=0;verticalLabelPosition=bottom;verticalAlign=top;align=center;html=1;fontSize=12;fontStyle=0;aspect=fixed;shape=mxgraph.aws4.illustration_users;pointerEvents=1" vertex="1" parent="1">
          <mxGeometry x="-400" y="-560" width="60" height="60" as="geometry" />
        </mxCell>
        <mxCell id="1iKM_LpDAypyYOfKzIO1-21" value="&lt;div&gt;&lt;br&gt;&lt;/div&gt;&lt;div&gt;&lt;br&gt;&lt;/div&gt;&lt;div&gt;&lt;br&gt;&lt;/div&gt;&lt;div&gt;&lt;br&gt;&lt;/div&gt;&lt;div&gt;&lt;br&gt;&lt;/div&gt;&lt;div&gt;&lt;br&gt;&lt;/div&gt;&lt;div&gt;&lt;br&gt;&lt;/div&gt;&lt;div&gt;Developer&lt;/div&gt;" style="shape=actor;whiteSpace=wrap;html=1;" vertex="1" parent="1">
          <mxGeometry x="1120" y="-775" width="40" height="60" as="geometry" />
        </mxCell>
        <mxCell id="1iKM_LpDAypyYOfKzIO1-22" value="" style="endArrow=classic;html=1;rounded=0;" edge="1" parent="1" source="WvLUMB6CFgXxN4avAicS-5" target="1iKM_LpDAypyYOfKzIO1-21">
          <mxGeometry width="50" height="50" relative="1" as="geometry">
            <mxPoint x="1100" y="-590" as="sourcePoint" />
            <mxPoint x="1150" y="-640" as="targetPoint" />
          </mxGeometry>
        </mxCell>
        <mxCell id="1iKM_LpDAypyYOfKzIO1-26" value="&lt;font style=&quot;font-size: 50px;&quot;&gt;AWS Cloud&lt;/font&gt;" style="text;html=1;align=center;verticalAlign=middle;whiteSpace=wrap;rounded=0;" vertex="1" parent="1">
          <mxGeometry x="-400" y="-815.5" width="160" height="140" as="geometry" />
        </mxCell>
        <mxCell id="1iKM_LpDAypyYOfKzIO1-27" value="&lt;font style=&quot;font-size: 20px;&quot;&gt;Terraform Workflow&lt;/font&gt;&lt;div&gt;&lt;font style=&quot;font-size: 20px;&quot;&gt;Github Actions&lt;/font&gt;&lt;/div&gt;" style="dashed=0;outlineConnect=0;html=1;align=center;labelPosition=center;verticalLabelPosition=bottom;verticalAlign=top;shape=mxgraph.weblogos.github" vertex="1" parent="1">
          <mxGeometry x="-930" y="-1032" width="170" height="205" as="geometry" />
        </mxCell>
        <mxCell id="1iKM_LpDAypyYOfKzIO1-28" value="&lt;font style=&quot;font-size: 20px;&quot;&gt;VS Code&lt;/font&gt;" style="dashed=0;outlineConnect=0;html=1;align=center;labelPosition=center;verticalLabelPosition=bottom;verticalAlign=top;shape=mxgraph.weblogos.vimeo;fillColor=#1AB7EA;strokeColor=none" vertex="1" parent="1">
          <mxGeometry x="-1330" y="-975.5" width="180" height="200" as="geometry" />
        </mxCell>
        <mxCell id="1iKM_LpDAypyYOfKzIO1-31" value="" style="endArrow=classic;html=1;rounded=0;fontSize=100;shape=flexArrow;strokeWidth=4;" edge="1" parent="1" source="1iKM_LpDAypyYOfKzIO1-28" target="1iKM_LpDAypyYOfKzIO1-27">
          <mxGeometry width="50" height="50" relative="1" as="geometry">
            <mxPoint x="-960" y="-790" as="sourcePoint" />
            <mxPoint x="-910" y="-840" as="targetPoint" />
          </mxGeometry>
        </mxCell>
        <mxCell id="1iKM_LpDAypyYOfKzIO1-32" value="" style="shape=flexArrow;endArrow=classic;html=1;rounded=0;strokeWidth=3;" edge="1" parent="1" source="1iKM_LpDAypyYOfKzIO1-27" target="UEzPUAAOIrF-is8g5C7q-158">
          <mxGeometry width="50" height="50" relative="1" as="geometry">
            <mxPoint x="-730" y="-520" as="sourcePoint" />
            <mxPoint x="-680" y="-570" as="targetPoint" />
          </mxGeometry>
        </mxCell>
        <mxCell id="1iKM_LpDAypyYOfKzIO1-33" value="&lt;font style=&quot;font-size: 22px;&quot;&gt;Update Architecture&lt;/font&gt;" style="shape=flexArrow;endArrow=classic;html=1;rounded=0;strokeWidth=3;" edge="1" parent="1" source="1iKM_LpDAypyYOfKzIO1-27" target="1iKM_LpDAypyYOfKzIO1-23">
          <mxGeometry width="50" height="50" relative="1" as="geometry">
            <mxPoint x="-672" y="-885" as="sourcePoint" />
            <mxPoint x="-657" y="-317" as="targetPoint" />
          </mxGeometry>
        </mxCell>
        <mxCell id="1iKM_LpDAypyYOfKzIO1-34" value="U" style="edgeLabel;html=1;align=center;verticalAlign=middle;resizable=0;points=[];" vertex="1" connectable="0" parent="1iKM_LpDAypyYOfKzIO1-33">
          <mxGeometry x="0.1406" y="5" relative="1" as="geometry">
            <mxPoint as="offset" />
          </mxGeometry>
        </mxCell>
        <mxCell id="1iKM_LpDAypyYOfKzIO1-35" value="&lt;font style=&quot;font-size: 88px;&quot;&gt;&lt;b style=&quot;&quot;&gt;N&lt;/b&gt;&lt;/font&gt;&lt;font style=&quot;font-size: 23px;&quot;&gt;&lt;br&gt;NETLIFY&lt;/font&gt;" style="text;html=1;align=center;verticalAlign=middle;whiteSpace=wrap;rounded=0;" vertex="1" parent="1">
          <mxGeometry x="-160" y="-1130" width="60" height="30" as="geometry" />
        </mxCell>
        <mxCell id="1iKM_LpDAypyYOfKzIO1-39" value="" style="shape=flexArrow;endArrow=classic;html=1;rounded=0;strokeWidth=3;" edge="1" parent="1" source="1iKM_LpDAypyYOfKzIO1-27" target="1iKM_LpDAypyYOfKzIO1-35">
          <mxGeometry width="50" height="50" relative="1" as="geometry">
            <mxPoint x="-590" y="-1000" as="sourcePoint" />
            <mxPoint x="-370" y="-1080" as="targetPoint" />
          </mxGeometry>
        </mxCell>
        <mxCell id="1iKM_LpDAypyYOfKzIO1-41" value="" style="endArrow=classic;html=1;rounded=0;strokeWidth=3;" edge="1" parent="1" source="1iKM_LpDAypyYOfKzIO1-35" target="1iKM_LpDAypyYOfKzIO1-12">
          <mxGeometry width="50" height="50" relative="1" as="geometry">
            <mxPoint x="-120" y="-1020" as="sourcePoint" />
            <mxPoint x="-120" y="-880" as="targetPoint" />
          </mxGeometry>
        </mxCell>
      </root>
    </mxGraphModel>
  </diagram>
</mxfile>
